<?xml version="1.0" standalone="no"?>
<!DOCTYPE svg PUBLIC "-//W3C//DTD SVG 20010904//EN"
 "http://www.w3.org/TR/2001/REC-SVG-20010904/DTD/svg10.dtd">
<svg version="1.0" xmlns="http://www.w3.org/2000/svg"
 width="1196.000000pt" height="1280.000000pt" viewBox="0 0 1196.000000 1280.000000"
 preserveAspectRatio="xMidYMid meet">
<metadata>
Created by potrace 1.15, written by Peter Selinger 2001-2017
</metadata>
<g transform="translate(0.000000,1280.000000) scale(0.100000,-0.100000)"
fill="#000000" stroke="none">
<path d="M7445 12702 c-720 -452 -1227 -904 -1672 -1488 -380 -500 -704 -1114
-948 -1794 -36 -102 -71 -200 -78 -219 -10 -28 -31 -45 -122 -100 -231 -139
-372 -249 -564 -436 -389 -380 -659 -837 -795 -1345 l-23 -85 -39 -6 c-21 -4
-100 -12 -174 -18 -674 -54 -1265 15 -1887 218 -295 96 -691 267 -984 425 -78
42 -143 75 -145 73 -2 -2 30 -58 71 -126 430 -703 934 -1271 1520 -1711 511
-384 1135 -708 1855 -964 71 -25 77 -29 105 -79 100 -179 264 -394 430 -566
329 -340 691 -575 1150 -743 l89 -33 18 -100 c65 -362 90 -635 91 -995 0 -419
-33 -710 -129 -1108 -100 -415 -299 -920 -538 -1361 -37 -68 -65 -125 -63
-127 5 -6 230 133 397 246 1216 820 1970 1865 2480 3438 39 119 70 221 70 228
0 7 26 27 58 44 206 117 411 276 613 479 322 323 545 674 693 1091 l41 115 70
6 c202 18 642 7 875 -21 626 -78 1279 -296 1908 -639 72 -39 134 -71 137 -71
7 0 -89 156 -220 355 -313 477 -672 892 -1075 1246 -444 388 -1053 764 -1632
1004 l-117 49 -37 91 c-269 655 -777 1202 -1414 1521 -149 74 -242 113 -410
169 -145 49 -129 23 -154 250 -103 930 33 1748 439 2645 31 69 103 216 161
328 57 111 101 202 97 202 -5 0 -71 -40 -148 -88z m-1115 -5037 c440 -73 794
-405 911 -855 25 -95 36 -316 21 -425 -56 -414 -350 -779 -740 -919 -146 -52
-204 -61 -397 -61 -153 1 -192 4 -264 23 -222 58 -374 146 -536 307 -218 218
-320 449 -332 751 -7 172 6 271 53 414 63 188 151 327 299 469 131 126 262
204 435 259 181 58 353 69 550 37z"/>
</g>
</svg>
